# xmcd CD database file
#
# Track frame offsets:
#	187
#	17002
#	34452
#	51205
#
# Disc length: 915 seconds
#
# Revision: 1
# Processed by: cddbd v1.5.1PL0 Copyright (c) Steve Scherf et al.
# Submitted via: CDex 1.51
#
DISCID=2e039104
DTITLE=小泉今日子 - 木枯しに抱かれて
DYEAR=1991
DGENRE=JPop
TTITLE0=木枯しに抱かれて
TTITLE1=スターダスト・メモリー
TTITLE2=木枯しに抱かれて (オリジナル・カラオケ)
TTITLE3=スターダスト・メモリー (オリジナル・カラオケ)
EXTD=YEAR: 1991
EXTT0=
EXTT1=
EXTT2=
EXTT3=
PLAYORDER=
